<svg width="16" height="16" viewBox="0 0 16 16" fill="#fff" xmlns="http://www.w3.org/2000/svg">
<path d="M8.00065 1.33325C5.82803 1.33325 3.89978 2.38484 2.68164 3.99992H2.66732V4.01815C1.83395 5.13105 1.33398 6.50684 1.33398 7.99992C1.33398 11.6739 4.32665 14.6666 8.00065 14.6666C11.6747 14.6666 14.6673 11.6739 14.6673 7.99992C14.6673 4.32592 11.6747 1.33325 8.00065 1.33325ZM10.0007 3.05591C11.9574 3.84482 13.334 5.75502 13.334 7.99992C13.334 9.39181 12.801 10.6521 11.9329 11.6002C11.7624 11.0604 11.2637 10.6666 10.6673 10.6666C10.2993 10.6666 10.0007 10.3679 10.0007 9.99992V8.66658C10.0007 8.29858 9.70198 7.99992 9.33398 7.99992H6.66732C6.29932 7.99992 6.00065 7.70125 6.00065 7.33325C6.00065 6.96525 6.29932 6.66658 6.66732 6.66658C7.03532 6.66658 7.33398 6.36792 7.33398 5.99992V5.33325C7.33398 4.96525 7.63265 4.66658 8.00065 4.66658H8.66732C9.40398 4.66658 10.0007 4.06992 10.0007 3.33325V3.05591ZM2.80534 6.80461L6.00065 9.99992V10.6666C6.00065 11.4033 6.59732 11.9999 7.33398 11.9999V13.2877C4.69783 12.9607 2.66732 10.727 2.66732 7.99992C2.66732 7.58804 2.71767 7.18927 2.80534 6.80461Z" />
</svg>
