<svg width="20" height="20" viewBox="0 0 20 20" fill="#fff" xmlns="http://www.w3.org/2000/svg">
<path fill-rule="evenodd" clip-rule="evenodd" d="M15.5896 4.4107C15.915 4.73614 15.915 5.26378 15.5896 5.58921L11.1788 9.99997L15.5896 14.4107C15.915 14.7361 15.915 15.2638 15.5896 15.5892C15.2641 15.9147 14.7365 15.9147 14.4111 15.5892L10.0003 11.1785L5.5896 15.5892C5.26416 15.9146 4.73652 15.9146 4.41109 15.5892C4.08565 15.2638 4.08565 14.7361 4.41109 14.4107L8.82181 9.99997L4.41107 5.58923C4.08563 5.26379 4.08563 4.73616 4.41107 4.41072C4.73651 4.08528 5.26414 4.08528 5.58958 4.41072L10.0003 8.82146L14.4111 4.4107C14.7365 4.08527 15.2641 4.08527 15.5896 4.4107Z" />
</svg>
