<svg width="20" height="20" viewBox="0 0 20 20" fill="#fff" xmlns="http://www.w3.org/2000/svg">
<path d="M8.33301 10C10.4041 10 12.083 8.32107 12.083 6.25C12.083 4.17893 10.4041 2.5 8.33301 2.5C6.26194 2.5 4.58301 4.17893 4.58301 6.25C4.58301 8.32107 6.26194 10 8.33301 10Z" />
<path d="M15.833 17.5V15.5556C15.833 14.5242 15.4379 13.535 14.7347 12.8057C14.0314 12.0764 13.0776 11.6667 12.083 11.6667H4.58301C3.58845 11.6667 2.63462 12.0764 1.93136 12.8057C1.2281 13.535 0.833008 14.5242 0.833008 15.5556V17.5H15.833Z" />
<path d="M13.2385 3.50838C13.6021 3.22617 14.1256 3.29213 14.4078 3.65569C14.9751 4.38653 15.283 5.2854 15.283 6.21057C15.283 7.13575 14.9751 8.03462 14.4078 8.76546C14.1256 9.12902 13.6021 9.19498 13.2385 8.91277C12.875 8.63057 12.809 8.10707 13.0912 7.74351C13.4316 7.305 13.6163 6.76568 13.6163 6.21057C13.6163 5.65547 13.4316 5.11615 13.0912 4.67764C12.809 4.31408 12.875 3.79058 13.2385 3.50838Z" />
<path d="M16.1794 11.2828C16.5016 10.9541 17.0292 10.9489 17.3578 11.2711C17.9169 11.8192 18.361 12.5437 18.6654 13.2504C18.9672 13.951 19.166 14.7142 19.166 15.3632V16.7914C19.166 17.2517 18.7929 17.6248 18.3327 17.6248C17.8724 17.6248 17.4993 17.2517 17.4993 16.7914V15.3632C17.4993 15.014 17.3811 14.4817 17.1347 13.9098C16.891 13.344 16.556 12.8191 16.191 12.4612C15.8624 12.139 15.8572 11.6114 16.1794 11.2828Z" />
</svg>
