<svg width="16" height="16" viewBox="0 0 16 16" fill="#fff" xmlns="http://www.w3.org/2000/svg">
<path fill-rule="evenodd" clip-rule="evenodd" d="M3.33203 1.33325C2.22746 1.33325 1.33203 2.22868 1.33203 3.33325V12.6666C1.33203 13.7712 2.22746 14.6666 3.33203 14.6666H12.6654C13.7699 14.6666 14.6654 13.7712 14.6654 12.6666V3.33325C14.6654 2.22868 13.7699 1.33325 12.6654 1.33325H3.33203ZM12.4344 6.88746C12.6485 6.64667 12.6268 6.27796 12.386 6.06393C12.1452 5.84989 11.7765 5.87158 11.5625 6.11237L9.33182 8.62185L7.1015 6.1124C6.99081 5.98786 6.83215 5.9166 6.66553 5.91658C6.4989 5.91657 6.34023 5.98782 6.22952 6.11234L3.56249 9.11234C3.34844 9.35312 3.3701 9.72183 3.61088 9.93588C3.85165 10.1499 4.22036 10.1283 4.43442 9.88749L6.66543 7.37795L8.89577 9.88743C9.00647 10.012 9.16514 10.0832 9.33177 10.0833C9.4984 10.0833 9.65707 10.012 9.76778 9.88746L12.4344 6.88746Z"/>
</svg>
