<svg width="20" height="20" viewBox="0 0 20 20" fill="#fff" xmlns="http://www.w3.org/2000/svg">
<path fill-rule="evenodd" clip-rule="evenodd" d="M12.0513 2.07772C12.7087 1.80535 13.4132 1.66516 14.1248 1.66516C14.8363 1.66516 15.5409 1.80535 16.1982 2.07772C16.8555 2.35005 17.4526 2.74917 17.9556 3.25229C18.4587 3.75525 18.8581 4.35267 19.1304 5.00989C19.4028 5.66724 19.543 6.37181 19.543 7.08335C19.543 7.79489 19.4028 8.49946 19.1304 9.15681C18.8581 9.81409 18.4589 10.4113 17.9557 10.9143L10.589 18.2809C10.2636 18.6064 9.73595 18.6064 9.41052 18.2809L2.04385 10.9143C1.02783 9.89825 0.457031 8.52022 0.457031 7.08335C0.457031 5.64647 1.02783 4.26845 2.04385 3.25243C3.05988 2.2364 4.4379 1.66561 5.87477 1.66561C7.31165 1.66561 8.68967 2.2364 9.7057 3.25243L9.99977 3.5465L10.2937 3.25257C10.7967 2.74938 11.394 2.35007 12.0513 2.07772Z" />
</svg>
