<svg width="20" height="18" viewBox="0 0 20 18" fill="#fff" xmlns="http://www.w3.org/2000/svg">
<path fill-rule="evenodd" clip-rule="evenodd" d="M17.5876 7.51754C17.776 7.06286 17.873 6.57552 17.873 6.08335C17.873 5.59118 17.776 5.10384 17.5876 4.64916C17.3993 4.19467 17.123 3.78133 16.7749 3.43335C16.427 3.08534 16.0136 2.80889 15.559 2.62053C15.1043 2.43213 14.6169 2.33516 14.1248 2.33516C13.6326 2.33516 13.1453 2.43213 12.6906 2.62053C12.236 2.80888 11.8228 3.0851 11.4748 3.4332L11.1806 3.72737C10.5285 4.37955 9.47108 4.37955 8.81891 3.72737L8.52483 3.4333C7.82199 2.73046 6.86874 2.33561 5.87477 2.33561C4.88081 2.33561 3.92756 2.73046 3.22472 3.4333C2.52188 4.13613 2.12703 5.08939 2.12703 6.08335C2.12703 7.07731 2.52188 8.03056 3.22472 8.7334L9.99977 15.5085L16.7748 8.7334C17.1229 8.38549 17.3992 7.97218 17.5876 7.51754ZM17.9556 2.25229C18.4587 2.75525 18.8581 3.35267 19.1304 4.00989C19.4028 4.66724 19.543 5.37181 19.543 6.08335C19.543 6.79489 19.4028 7.49946 19.1304 8.15681C18.8581 8.81409 18.4589 9.41128 17.9557 9.91427L10.589 17.2809C10.2636 17.6064 9.73595 17.6064 9.41052 17.2809L2.04385 9.91427C1.02783 8.89825 0.457031 7.52022 0.457031 6.08335C0.457031 4.64647 1.02783 3.26845 2.04385 2.25243C3.05988 1.2364 4.4379 0.665607 5.87477 0.665607C7.31165 0.665607 8.68967 1.2364 9.7057 2.25243L9.99977 2.5465L10.2937 2.25257C10.7967 1.74938 11.394 1.35007 12.0513 1.07772C12.7087 0.805351 13.4132 0.665161 14.1248 0.665161C14.8363 0.665161 15.5409 0.805352 16.1982 1.07772C16.8555 1.35005 17.4526 1.74917 17.9556 2.25229Z" />
</svg>
