<svg width="16" height="16" viewBox="0 0 16 16" fill="#fff" xmlns="http://www.w3.org/2000/svg">
<path d="M9.54112 5.70861C9.55645 5.71128 9.57245 5.71261 9.58778 5.71261C10.2425 5.71261 12.0325 4.11328 12.0325 2.89061C12.0325 1.93595 11.0471 1.34595 10.1338 1.34595C9.14845 1.34595 8.56045 1.92328 8.56045 2.89061C8.56045 3.93795 8.99978 5.61661 9.54112 5.70861ZM12.7645 4.86328C11.8485 4.86328 10.5311 6.17861 10.5311 6.62661C10.5311 7.13328 11.8225 7.62928 12.7858 7.62928C13.5625 7.62928 13.9898 7.21195 13.9898 6.45261C13.9898 5.60528 13.4171 4.86328 12.7645 4.86328ZM10.7931 8.99995C10.7931 10.8933 5.63312 14.0333 2.88645 14.5666C2.83978 14.5733 2.79978 14.5799 2.75312 14.5799C2.57978 14.5799 2.40645 14.5133 2.27978 14.3799C2.12645 14.2266 2.05978 13.9999 2.10645 13.7799C2.65312 11.0933 5.51978 5.62661 7.55978 5.62661C8.83978 5.62661 10.7931 7.43328 10.7931 8.99995Z" />
</svg>
