<svg width="16" height="16" viewBox="0 0 16 16" fill="#fff" xmlns="http://www.w3.org/2000/svg">
<path fill-rule="evenodd" clip-rule="evenodd" d="M3.33398 1.33337C2.22941 1.33337 1.33398 2.2288 1.33398 3.33337V12.6667C1.33398 13.7713 2.22941 14.6667 3.33398 14.6667H12.6673C13.7719 14.6667 14.6673 13.7713 14.6673 12.6667V3.33337C14.6673 2.2288 13.7719 1.33337 12.6673 1.33337H3.33398ZM4.66715 7.33337C4.29896 7.33337 4.00049 7.63185 4.00049 8.00004C4.00049 8.36823 4.29896 8.66671 4.66715 8.66671H11.3338C11.702 8.66671 12.0005 8.36823 12.0005 8.00004C12.0005 7.63185 11.702 7.33337 11.3338 7.33337H4.66715ZM4.00049 5.33335C4.00049 4.96516 4.29896 4.66669 4.66715 4.66669H11.3338C11.702 4.66669 12.0005 4.96516 12.0005 5.33335C12.0005 5.70154 11.702 6.00002 11.3338 6.00002H4.66715C4.29896 6.00002 4.00049 5.70154 4.00049 5.33335ZM4.66715 10C4.29896 10 4.00049 10.2985 4.00049 10.6667C4.00049 11.0349 4.29896 11.3333 4.66715 11.3333H11.3338C11.702 11.3333 12.0005 11.0349 12.0005 10.6667C12.0005 10.2985 11.702 10 11.3338 10H4.66715Z" />
</svg>
