<svg width="16" height="16" viewBox="0 0 16 16" fill="#fff" xmlns="http://www.w3.org/2000/svg">
<path d="M14.666 2.66675H10.666C9.56135 2.66675 8.66602 3.56208 8.66602 4.66675V11.3334C8.66602 11.7014 8.36735 12.0001 7.99935 12.0001C7.63135 12.0001 7.33268 11.7014 7.33268 11.3334V4.66675C7.33268 3.56208 6.43735 2.66675 5.33268 2.66675H1.33268C0.964682 2.66675 0.666016 2.96541 0.666016 3.33341V12.0001C0.666016 12.7367 1.26268 13.3334 1.99935 13.3334H3.33268V9.89341C2.54602 9.62675 1.99935 8.90008 1.99935 8.00008C1.99935 6.86675 2.86602 4.66675 3.99935 4.66675C5.13268 4.66675 5.99935 6.86675 5.99935 8.00008C5.99935 8.90008 5.45268 9.62675 4.66602 9.89341V13.3334H6.85068C7.08135 13.7301 7.50668 14.0001 7.99935 14.0001C8.49202 14.0001 8.91735 13.7301 9.14802 13.3334H13.9993C14.736 13.3334 15.3327 12.7367 15.3327 12.0001V3.33341C15.3327 2.96541 15.034 2.66675 14.666 2.66675ZM13.3327 10.0001H10.666C10.298 10.0001 9.99935 9.70141 9.99935 9.33341C9.99935 8.96541 10.298 8.66675 10.666 8.66675H13.3327C13.7007 8.66675 13.9993 8.96541 13.9993 9.33341C13.9993 9.70141 13.7007 10.0001 13.3327 10.0001ZM13.3327 6.66675H10.666C10.298 6.66675 9.99935 6.36808 9.99935 6.00008C9.99935 5.63208 10.298 5.33341 10.666 5.33341H13.3327C13.7007 5.33341 13.9993 5.63208 13.9993 6.00008C13.9993 6.36808 13.7007 6.66675 13.3327 6.66675Z" />
</svg>
