<svg width="20" height="20" viewBox="0 0 20 20" fill="#fff" xmlns="http://www.w3.org/2000/svg">
<path d="M2.25911 3.33337C1.79888 3.33337 1.42578 3.70647 1.42578 4.16671V14.3056C1.42578 14.7658 1.79888 15.1389 2.25912 15.1389H7.167C7.81957 15.1389 8.44541 15.3877 8.90685 15.8305C9.36829 16.2732 9.62752 16.8738 9.62752 17.5V6.48152C9.62752 5.64658 9.28187 4.84583 8.66662 4.25544C8.05137 3.66505 7.21692 3.33337 6.34682 3.33337H2.25911Z" />
<path d="M17.7413 3.33339C18.2015 3.33339 18.5746 3.70649 18.5746 4.16673V14.3056C18.5746 14.7658 18.2015 15.1389 17.7413 15.1389H12.8334C12.1808 15.1389 11.555 15.3877 11.0935 15.8305C10.6321 16.2733 10.3729 16.8738 10.3729 17.5V6.48154C10.3729 5.6466 10.7185 4.84585 11.3338 4.25546C11.949 3.66507 12.7835 3.33339 13.6536 3.33339H17.7413Z" />
</svg>
