<svg width="16" height="16" viewBox="0 0 16 16" fill="#fff" xmlns="http://www.w3.org/2000/svg">
<g clip-path="url(#clip0_1227_10256)">
<path fill-rule="evenodd" clip-rule="evenodd" d="M8.0013 0.666748C3.95121 0.666748 0.667969 3.94999 0.667969 8.00008C0.667969 12.0502 3.95121 15.3334 8.0013 15.3334C12.0514 15.3334 15.3346 12.0502 15.3346 8.00008C15.3346 3.94999 12.0514 0.666748 8.0013 0.666748ZM8.66798 3.92601C8.66798 3.55782 8.36951 3.25935 8.00132 3.25935C7.63313 3.25935 7.33465 3.55782 7.33465 3.92601V8.32601C7.33465 8.57853 7.47732 8.80937 7.70318 8.9223L10.6365 10.389C10.9658 10.5536 11.3663 10.4201 11.5309 10.0908C11.6956 9.7615 11.5621 9.36106 11.2328 9.1964L8.66798 7.91399V3.92601Z" />
</g>
<defs>
<clipPath id="clip0_1227_10256">
<rect width="16" height="16" />
</clipPath>
</defs>
</svg>
