<svg width="112" height="112" viewBox="0 0 112 112" fill="none" xmlns="http://www.w3.org/2000/svg">
<path d="M8 14.3047C8 10.8227 10.8227 8 14.3047 8H55.59C81.8732 8 103.18 29.3068 103.18 55.59C103.18 81.8732 81.8732 103.18 55.59 103.18C29.3068 103.18 8 81.8732 8 55.59V14.3047Z" fill="#EDEEF3"/>
<path d="M53.9659 76.6599L73.0518 87.6791C74.1373 88.3058 75.5253 87.9339 76.152 86.8484L90.5768 61.864C90.8777 61.3428 90.9593 60.7233 90.8035 60.1419L88.4325 51.2932C88.2767 50.7118 87.8963 50.2161 87.3751 49.9151L73.899 42.1347C72.8136 41.508 71.4256 41.88 70.7988 42.9654L53.1352 73.5597C52.5085 74.6452 52.8805 76.0332 53.9659 76.6599Z" fill="#E5E6ED"/>
<path d="M84.7417 55.3639L87.4275 50.712C87.692 50.2538 87.5635 50.0551 87.5002 49.9932C87.957 50.2981 88.2892 50.7596 88.4322 51.2933L90.8032 60.142C90.9468 60.6778 90.8888 61.246 90.6432 61.7398C90.6597 61.6542 90.6375 61.3884 89.9366 60.9837L85.5714 58.4635C84.4859 57.8368 84.115 56.4494 84.7417 55.3639Z" fill="#D2D4E0"/>
<path d="M45.8444 85.0738L69.4883 71.423C71.1799 70.4464 71.7595 68.2833 70.7828 66.5916L52.5512 35.0135C52.0822 34.2011 51.3097 33.6084 50.4036 33.3656L39.44 30.4279C38.534 30.1851 37.5686 30.3122 36.7562 30.7812L20.063 40.4191C18.3713 41.3958 17.7917 43.5589 18.7684 45.2505L41.013 83.7792C41.9897 85.4709 44.1528 86.0505 45.8444 85.0738Z" fill="#E5E6ED"/>
<path d="M35.9568 89.3682H76.041C77.9943 89.3682 79.5778 87.7847 79.5778 85.8313V37.949C79.5778 37.011 79.2052 36.1113 78.5419 35.4481L66.7611 23.6673C66.0978 23.004 65.1982 22.6313 64.2602 22.6313H35.9568C34.0034 22.6313 32.4199 24.2148 32.4199 26.1682V85.8313C32.4199 87.7847 34.0034 89.3682 35.9568 89.3682Z" fill="#D2D4E0"/>
<path d="M64.3005 22.6316H64.2548C64.2548 22.6316 64.8442 22.6316 64.8442 23.8107L64.8442 33.8322C64.8442 35.7855 66.4254 37.3686 68.3787 37.3686L77.8127 37.3686C79.5804 37.3686 79.5811 37.9576 79.5811 37.9582V37.8797C79.5632 36.9667 79.1927 36.095 78.5458 35.4481L66.765 23.6673C66.1103 23.0126 65.2253 22.6411 64.3005 22.6316Z" fill="#868BA7" fill-opacity="0.4"/>
<rect x="41.2637" y="35.0103" width="18.2737" height="2.35789" rx="1.17895" fill="#BABDCF"/>
<rect x="41.2637" y="40.9053" width="12.3789" height="2.35789" rx="1.17895" fill="#BABDCF"/>
<path d="M47.9853 58.9536C48.2782 58.6607 48.7531 58.6607 49.046 58.9536L50.5788 60.4864L52.1116 58.9536C52.4045 58.6607 52.8794 58.6607 53.1723 58.9536C53.4652 59.2464 53.4652 59.7213 53.1723 60.0142L51.6395 61.547L53.1723 63.0799C53.4652 63.3728 53.4652 63.8476 53.1723 64.1405C52.8794 64.4334 52.4045 64.4334 52.1116 64.1405L50.5788 62.6077L49.046 64.1405C48.7531 64.4334 48.2782 64.4334 47.9853 64.1405C47.6924 63.8476 47.6924 63.3728 47.9853 63.0799L49.5181 61.547L47.9853 60.0142C47.6924 59.7213 47.6924 59.2464 47.9853 58.9536Z" fill="#676D89"/>
<path d="M44.4319 75.4896C44.1615 75.1759 44.1966 74.7023 44.5104 74.4319C47.5107 71.846 51.7848 70.25 56.5 70.25C61.2153 70.25 65.4893 71.846 68.4897 74.4319C68.8034 74.7023 68.8385 75.1759 68.5681 75.4896C68.2977 75.8034 67.8241 75.8385 67.5104 75.5681C64.805 73.2364 60.8869 71.75 56.5 71.75C52.1132 71.75 48.195 73.2364 45.4897 75.5681C45.1759 75.8385 44.7023 75.8034 44.4319 75.4896Z" fill="#676D89"/>
<path d="M61.0655 58.9536C60.7726 58.6607 60.2977 58.6607 60.0048 58.9536C59.7119 59.2464 59.7119 59.7213 60.0048 60.0142L61.5377 61.547L60.0048 63.0799C59.7119 63.3728 59.7119 63.8476 60.0048 64.1405C60.2977 64.4334 60.7726 64.4334 61.0655 64.1405L62.5983 62.6077L64.1312 64.1405C64.424 64.4334 64.8989 64.4334 65.1918 64.1405C65.4847 63.8476 65.4847 63.3728 65.1918 63.0799L63.659 61.547L65.1918 60.0142C65.4847 59.7213 65.4847 59.2464 65.1918 58.9536C64.8989 58.6607 64.424 58.6607 64.1312 58.9536L62.5983 60.4864L61.0655 58.9536Z" fill="#676D89"/>
</svg>
