<svg width="48" height="48" viewBox="0 0 48 48" fill="none" xmlns="http://www.w3.org/2000/svg">
<path d="M4 8.00012C2.896 8.00012 2 8.89612 2 10.0001V14.0001H39.9805C41.0925 14.0001 41.9851 14.9175 41.9531 16.0275C41.9531 16.0455 41.9531 16.0681 41.9531 16.0861C41.9231 17.1521 41.0485 18.0001 39.9805 18.0001H2.10156C2.90426 26.0527 8.51084 32.6988 16 35.0626V36.0001C16 37.1041 16.896 38.0001 18 38.0001H30C31.104 38.0001 32 37.1041 32 36.0001V35.0822C40.1145 32.5338 46 24.9558 46 16.0001V10.0001C46 8.89612 45.104 8.00012 44 8.00012H4Z" fill="#15C421"/>
</svg>
